<svg xmlns="http://www.w3.org/2000/svg" width="512" height="512" fill="none"><defs><clipPath id="a"><rect width="512" height="512" rx="0"/></clipPath></defs><g clip-path="url(#a)"><path fill="#000" fill-rule="evenodd" d="M137.793 406.35q-.65 1.011-1.4 1.995-4.717 6.188-13.267 10.873-15.269 8.368-33.842 8.368-16.453 0-29.455-8.097-8.052-5.014-12.109-13.436Q44 398.33 44 388.26q0-25.227 10.704-51.097 10.156-24.546 25.034-48.393 14.401-23.085 28.806-45.134 13.918-21.305 23.347-40.495.698-1.42 1.339-2.82l-22.758-4.123v-10.364q0-27.435 13.392-46.955 4.736-6.905 10.434-12.583 12.173-15.335 29.81-23.703 19.991-9.486 41.087-9.486 24.891 0 46.481 14.02 11.382 7.39 19.188 19.025 7.526 11.218 11.59 26.227 3.148 11.199 4.714 25.024 1.502 13.253 1.936 22.99l.416 9.313 1.462 56.947q.61 22.681 2.221 37.93 1.558 14.751 4.21 24.564 2.254 8.02 5.66 12.594.694.932 1.24 1.218.342.18 1.006.18 1.365 0 2.496-.366l4.782-10.722 2.523 1.796 4.124-9.247 12.608 8.973q1.083-9.21 2.439-19.93 3.136-24.793 7.315-52.066 4.173-27.232 8.555-52.598 4.389-25.405 8.158-44.39 3.913-19.714 6.705-27.596 4.274-11.616 13.154-19.756 5.904-8.16 15.135-13.808 14.841-9.08 30.825-9.08 14.72 0 26.866 8.443 12.914 8.978 17.291 28.603l.705 3.161-.934 3.101q-2.422 8.045-7.761 28.712-5.325 20.609-11.494 50.528-6.169 29.912-11.73 66.031-5.533 35.934-8.819 75.167-.426 7.17-1.264 16.57-.806 9.034-1.209 18.274l-.199 4.543-3.095 3.341q-1.595 1.721-3.521 3.394l-.031.716-3.095 3.341q-6.459 6.972-18.357 13.147-12.677 6.58-26.53 6.58-8.625 0-16.303-3.633-7.345-3.475-13.458-10.132-6.614-7.204-9.607-19.339-.997-4.043-1.611-8.712-5.33 9.51-12.567 16.473-7.299 9.513-17.156 15.61-15.067 9.318-31.915 9.318-16.464 0-31.757-9.556-14.935-9.333-25.629-28.222-8.407-14.85-12.1-36.142-7.541-.445-14.86-.816-11.94-.605-21.594-.605-5.139 0-9.88.128-.954 4.407-1.731 8.84-2.099 11.978-2.099 23.321 0 8.942-5.654 16.36-2.205 2.892-5.246 5.456Zm40.498-127.867.869-.08q7.423-.66 15.464-.919-.584-17.637-1.37-35.809l-14.963 36.808Z"/><path fill="#FFF" d="M95.931 407.716q-12.879 0-22.85-6.21-9.97-6.21-9.97-20.697 0-22.768 9.763-46.364 9.763-23.595 24.096-46.57t28.666-44.915q14.333-21.94 24.096-41.81 9.764-19.87 9.764-36.842 0-13.66-6.648-13.66-4.57 0-10.386 7.244-5.816 7.244-8.309 21.319l-4.57-.828q0-23.596 11.217-39.947 11.217-16.352 28.667-24.63 17.449-8.28 35.729-8.28 21.188 0 39.675 12.005 18.488 12.004 25.55 38.084 2.909 10.349 4.363 23.182 1.454 12.832 1.869 22.146l.416 9.315q.83 33.53 1.454 56.712.623 23.182 2.285 38.912 1.662 15.73 4.57 26.494 2.908 10.349 7.686 16.765 4.777 6.416 12.255 6.416 7.063 0 12.256-4.14 5.193-4.14 6.855-7.864l2.908 2.069q0 19.042-7.478 33.117-7.478 14.075-19.526 21.526-12.048 7.45-25.343 7.45-12.88 0-25.134-7.657-12.256-7.658-21.396-23.803-9.14-16.144-12.048-41.81-12.88-.828-25.135-1.448-12.256-.621-22.227-.621-6.647 0-12.671.207-6.024.207-11.84.62-3.74 12.833-6.025 25.873-2.285 13.04-2.285 25.458 0 9.522-12.463 16.352-12.464 6.83-27.836 6.83Zm62.318-113.011q10.387-2.897 22.019-3.932 11.633-1.035 24.928-1.035h9.139q-.83-30.633-2.285-62.922-1.454-32.289-10.594-60.024-3.323 29.805-16.618 62.508l-26.589 65.405ZM377.608 408.13q-11.633 0-20.565-9.728-8.932-9.728-8.932-36.221 0-4.554.208-8.073.207-3.518.207-5.174 1.662-16.558 4.778-41.19 3.116-24.63 7.27-51.744 4.155-27.114 8.517-52.366 4.363-25.251 8.102-44.086 3.739-18.836 6.23-25.873 4.57-12.419 16.412-19.663 11.84-7.244 24.304-7.244 10.8 0 19.734 6.21 8.932 6.209 12.255 21.111-2.492 8.28-7.893 29.184-5.401 20.905-11.633 51.124-6.232 30.219-11.84 66.648-5.61 36.428-8.932 76.168-.416 7.037-1.247 16.352-.831 9.314-1.246 18.835-4.985 5.38-14.956 10.556-9.971 5.174-20.773 5.174Z"/><path fill="#FFA766" d="M348.954 344.795q-.83 4.553-.83 13.247c1.134-.45 10.069-4.057 11.137-4.644 8.116-4.45 14.35-12.708 18.525-24.542 4.67-13.229 6.883-31.377 6.591-53.95-.382-28.964 5.973-48.633 17.008-52.615 5.275-1.903 10.347.522 12.846 3.58 1.1 1.35 2.69 4.026.964 6.81a6.47 6.47 0 0 0 2.118 8.916c3.055 1.881 7.06.94 8.95-2.101 4.218-6.81 3.475-15.167-1.942-21.804-5.488-6.718-16.073-11.669-27.379-7.588-5.523 1.994-13.26 7.06-18.751 19.874-4.776 11.146-7.073 26.32-6.822 45.08.272 20.996-1.688 37.617-5.827 49.397-2.764 7.87-6.262 13.473-10.772 16.615l-5.816 3.725ZM184.423 108.424c-3.604 1.106-4.221.88-7.063 2.07q-2.842 1.188-7.894 3.311-9.738 5.331-16.073 10.35c-6.336 5.017-5.92 6.209-9.27 9.934q-2.641 2.909-4.57 6.204c-4.429 5.738-6.646 11.744-7.477 17.806-1.799 3.795 4.658-12.087 0-.414-.543 1.657-1.247 6.21-1.662 10.349-.409 4.074-.83 8.693-.83 10.349l4.57.828c1.688.228-2.078-9.522 13.293-28.15.295-.357-2.914 3.726 0 1.656 2.915-2.07 4.986-1.887 6.232-1.887q.488 0 3.324.231 1.616.69 2.493 1.656c.876.966 1.407 3.743 1.661 3.726 0 2.484-3.323 31.46-8.724 38.498-.273 0-5.545 12.252-5.816 12.22l.415.199.17-.199a6.521 6.521 0 0 1 6.19 2.702c40.488-23.57 51.04-83.813 53.49-104.057 0-.096.022-.177.015-.269-7.445.074-15.368.675-22.474 2.887Zm91.4 93.14V193.7l-9.292 3.172a6.888 6.888 0 0 1-.82.048c-3.41-.039-6.21-2.692-6.42-6.082-.21-3.39 2.242-6.367 5.62-6.822h10.496c-.36-1.704-.64-3.098-.83-4.804-.19-1.707.124-3.727-.417-5.382-1.3-3.987-.415-4.14-1.662-8.279-1.552-3.274-.934-4.76-1.66-7.865q-.728-3.105-1.248-4.554-1.383-2.258-1.778-4.967-.405-1.758-1.13-3.726-.725-1.968-1.77-4.145-4.882-8.279-8.2-12c-3.324-3.725-7.686-8.717-12.049-11.176-2.688-1.511-4.217-2.536-7.062-3.726q-3.512-1.475-7.479-3.312c-7.328-2.282-14.755-4.537-22.434-4.542h-.758l-.033.28c2.464 20.407 13.157 81.394 54.391 104.581a6.51 6.51 0 0 1 6.524-3.237h8.01c.53-3.707.011-1.853 0-5.597Z"/><path fill="#FFA766" d="m181.905 123.74-.034.28c0-.096-.025-.188-.033-.28h.067ZM69.343 343.552q-2.313 6.05-4.57 19.042-6.232 23.7 3.323 34.773c4.778 5.537 15.214 9.463 21.604 9.935.798.06 1.246.31 2.908.414 1.662.103 1.214-.148 3.739 0q6.647 0 6.647-.414c34.134-51.199-16.82-62.308-33.651-63.75Zm223.513 5.091c-1.246-1.655-.104 1.046-2.077-3.02q-1.974-4.068-5.817-13.248-3.214-14.903-3.323-21.112c-.055-3.104-.055-3.104-.574-8.589-.52-5.485-.52-5.485-1.503-13.35l-.831-16.973q-33.484 22.034-34.346 33.01c-1.04 13.161 7.918 36.027 28.287 43.283 6.524 2.326 14.175 5.312 23.092 3.601-.174-.995-1.662-1.946-2.908-3.602Z"/><path fill="#000" d="M116.232 85.84c-12.517 4.675-16.713 20.278-12.462 46.347 1.571 9.233 13.541 29.366 16.258 38.33l-.003-.023a99.411 99.411 0 0 1 4.658-11.691 101.025 101.025 0 0 1 11.33-18.482q2.39-3.097 5.028-6.006a92.075 92.075 0 0 1 23.311-18.681 81.83 81.83 0 0 1 8.3-4.03q3.51-1.475 7.115-2.58a76.424 76.424 0 0 1 21.938-3.47h.703a76.305 76.305 0 0 1 22.641 3.45q3.607 1.107 7.12 2.581a79.707 79.707 0 0 1 8.305 4.056 92.052 92.052 0 0 1 23.274 18.666q2.642 2.91 5.03 6.003a101.102 101.102 0 0 1 11.336 18.485 99.063 99.063 0 0 1 4.651 11.68c2.716-8.965 14.71-29.051 16.284-38.284 4.248-26.084.055-41.661-12.466-46.347-10.697-3.985-24.346-1.5-40.57 7.392-3.827 2.094-7.402 4.343-10.632 6.515a89.004 89.004 0 0 0-69.958 0c-3.215-2.168-6.804-4.424-10.634-6.511-16.229-8.896-29.878-11.381-40.557-7.4Z"/><path fill="#FFF" d="M120.833 96.618c-5.55 2.064-7.116 14.028-4.207 31.99.673 4.17 1.528 8.277 2.427 12.115a112.846 112.846 0 0 1 12.403-16.476 105.427 105.427 0 0 1 22.704-18.98c-9.384-5.619-19.196-9.674-27.118-9.674a17.681 17.681 0 0 0-6.21 1.025Zm129.936 8.65a105.328 105.328 0 0 1 22.686 18.979 113.11 113.11 0 0 1 12.395 16.476 180.652 180.652 0 0 0 2.424-12.107c2.908-17.962 1.34-29.926-4.204-31.99-8.573-3.194-21.279 1.474-33.3 8.641Z"/></g></svg>